<svg version="1.1" id="Layer_1" xmlns="http://www.w3.org/2000/svg" xmlns:xlink="http://www.w3.org/1999/xlink" x="0px" y="0px" viewBox="0 0 512 512" style="enable-background:new 0 0 512 512;" xml:space="preserve">
    <style type="text/css">
        .st0 {
            fill: #607D8B;
        }
    </style>
    <path class="st0" d="M306.6,338.2c-12.1,12.1-28.2,18.8-45.2,18.8c-17.1,0-33.2-6.7-45.2-18.8l-90.7-90.7
                        	c-12.1-12.1-18.7-28.2-18.7-45.2s6.7-33.2,18.7-45.2c12.1-12.1,28.2-18.8,45.2-18.8c17.1,0,33.2,6.7,45.2,18.8l45.4,45.4L386.7,77.1
                        	c-41-34.9-94-56.1-152-56.1C105.1,21,0,126.1,0,255.7c0,129.6,105.1,234.7,234.7,234.7c129.6,0,234.7-105.1,234.7-234.7
                        	c0-24.3-3.7-47.6-10.5-69.7L306.6,338.2z" id="id_101" style="fill: rgb(0, 149, 179);"></path>
    <path class="st0" d="M261.3,314.3c-5.5,0-10.9-2.1-15.1-6.2l-90.7-90.7c-8.3-8.3-8.3-21.8,0-30.2c8.3-8.3,21.8-8.3,30.2,0l75.6,75.6
                        	L475.6,48.6c8.3-8.3,21.8-8.3,30.2,0c8.3,8.3,8.3,21.8,0,30.2L276.4,308.1C272.3,312.2,266.8,314.3,261.3,314.3z" id="id_102" style="fill: rgb(4, 154, 184);"></path>
</svg>
