<?xml version="1.0" encoding="UTF-8"?>
<!DOCTYPE svg PUBLIC "-//W3C//DTDSVG1.1//EN" "http://www.w3.org/Graphics/SVG/1.1/DTD/svg11.dtd">
<!-- Creator: CorelDRAW -->
<svg xmlns="http://www.w3.org/2000/svg" xml:space="preserve" width="1.99999in" height="1.99999in" version="1.1" style="shape-rendering:geometricPrecision; text-rendering:geometricPrecision; image-rendering:optimizeQuality; fill-rule:evenodd; clip-rule:evenodd" viewBox="0 0 2000 2000" xmlns:xlink="http://www.w3.org/1999/xlink">
    <defs>
        <style type="text/css">
            <![CDATA[
            .fil0 {
                fill: #000002
            }
        ]]>
        </style>
    </defs>
    <g id="Layer_x0020_1">
        <metadata id="CorelCorpID_0Corel-Layer"/>
        <path class="fil0" d="M1000 1495c-8,0 -15,-4 -19,-10l-318 -472c-10,-15 1,-36 19,-36l136 0 0 -449c0,-13 11,-23 23,-23l318 0c12,0 23,10 23,23l0 449 136 0c18,0 29,21 19,36l-318 472c-4,6 -11,10 -19,10zm0 358c-471,0 -853,-382 -853,-853 0,-471 382,-853 853,-853 471,0 853,382 853,853 0,471 -382,853 -853,853zm0 -1660c-445,0 -807,362 -807,807 0,445 362,808 807,808 445,0 808,-363 808,-808 0,-445 -363,-807 -808,-807zm0 1528c-398,0 -721,-323 -721,-721 0,-398 323,-721 721,-721 398,0 721,323 721,721 0,398 -323,721 -721,721zm0 -1396c-372,0 -675,303 -675,675 0,372 303,675 675,675 372,0 675,-303 675,-675 0,-372 -303,-675 -675,-675zm-275 698l275 408 275 -408 -116 0c-13,0 -23,-10 -23,-23l0 -449 -272 0 0 449c0,13 -10,23 -23,23l-116 0z"/>
    </g>
</svg>
