<?xml version="1.0" encoding="UTF-8" standalone="no"?>
<svg width="512" height="512" viewBox="0 0 512 512" fill="none" xmlns="http://www.w3.org/2000/svg">
    <path d="M224 169.333V176H208C206.418 176 204.871 176.47 203.556 177.349C202.24 178.228 201.215 179.477 200.609 180.939C200.004 182.401 199.845 184.009 200.154 185.561C200.462 187.113 201.224 188.538 202.343 189.657L250.343 237.657C251.843 239.157 253.878 240 256 240C258.122 240 260.157 239.157 261.657 237.657L309.657 189.657C310.776 188.538 311.538 187.113 311.846 185.561C312.155 184.009 311.996 182.401 311.391 180.939C310.785 179.477 309.76 178.228 308.445 177.349C307.129 176.47 305.582 176 304 176H288V169.333C304.845 161.981 318.645 149.054 327.079 132.724C335.513 116.394 338.068 97.6585 334.313 79.6669C330.558 61.6754 320.722 45.5255 306.46 33.9328C292.198 22.3401 274.379 16.0117 256 16.0117C237.621 16.0117 219.802 22.3401 205.54 33.9328C191.278 45.5255 181.443 61.6754 177.688 79.6669C173.933 97.6585 176.487 116.394 184.921 132.724C193.356 149.054 207.155 161.981 224 169.333V169.333ZM256 220.687L227.314 192H232C234.122 192 236.157 191.157 237.657 189.657C239.157 188.157 240 186.122 240 184V120H272V184C272 186.122 272.843 188.157 274.343 189.657C275.844 191.157 277.878 192 280 192H284.687L256 220.687ZM256 32.0002C270.089 32.0011 283.784 36.6508 294.961 45.228C306.138 53.8053 314.173 65.8309 317.819 79.4398C321.466 93.0487 320.52 107.481 315.128 120.497C309.737 133.514 300.201 144.388 288 151.433V112C288 109.878 287.157 107.844 285.657 106.343C284.157 104.843 282.122 104 280 104H232C229.878 104 227.844 104.843 226.343 106.343C224.843 107.844 224 109.878 224 112V151.433C211.799 144.388 202.263 133.514 196.872 120.497C191.48 107.481 190.534 93.0487 194.181 79.4398C197.827 65.8309 205.862 53.8053 217.039 45.228C228.216 36.6508 241.911 32.0011 256 32.0002V32.0002Z" fill="black"/>
    <path d="M488.288 303.564C498.465 256.398 498.465 207.602 488.288 160.436L495.59 138.53C495.991 137.328 496.1 136.047 495.909 134.794C495.718 133.541 495.231 132.351 494.49 131.322C493.749 130.294 492.774 129.456 491.646 128.879C490.517 128.301 489.268 128 488 128H352C350.732 128 349.483 128.301 348.354 128.879C347.226 129.456 346.251 130.294 345.51 131.322C344.768 132.351 344.282 133.541 344.091 134.794C343.9 136.047 344.009 137.328 344.41 138.53L351.712 160.436C341.535 207.602 341.535 256.398 351.712 303.564L344.41 325.47C344.009 326.672 343.9 327.953 344.091 329.206C344.282 330.459 344.768 331.649 345.51 332.678C346.251 333.706 347.226 334.544 348.354 335.121C349.483 335.699 350.732 336 352 336H488C489.268 336 490.517 335.699 491.646 335.121C492.774 334.544 493.749 333.706 494.49 332.678C495.231 331.649 495.718 330.459 495.909 329.206C496.1 327.953 495.991 326.672 495.59 325.47L488.288 303.564ZM472.41 306.53L476.9 320H363.1L367.59 306.53C368.048 305.156 368.124 303.683 367.81 302.269L367.67 301.635C357.546 255.762 357.546 208.234 367.671 162.361L367.811 161.731C368.124 160.317 368.048 158.844 367.59 157.47L363.1 144H476.9L472.41 157.47C471.952 158.844 471.876 160.317 472.189 161.731L472.33 162.365C482.454 208.238 482.454 255.766 472.329 301.639L472.189 302.269C471.876 303.683 471.952 305.156 472.41 306.53V306.53Z" fill="black"/>
    <path d="M416 224C420.747 224 425.387 222.592 429.334 219.955C433.28 217.318 436.357 213.57 438.173 209.184C439.99 204.799 440.465 199.973 439.539 195.318C438.613 190.662 436.327 186.386 432.971 183.029C429.614 179.673 425.338 177.387 420.682 176.461C416.027 175.535 411.201 176.01 406.816 177.827C402.43 179.643 398.682 182.72 396.045 186.666C393.408 190.613 392 195.253 392 200C392.007 206.363 394.538 212.463 399.037 216.963C403.537 221.462 409.637 223.993 416 224V224ZM416 192C417.582 192 419.129 192.469 420.445 193.348C421.76 194.227 422.786 195.477 423.391 196.939C423.997 198.4 424.155 200.009 423.846 201.561C423.538 203.113 422.776 204.538 421.657 205.657C420.538 206.776 419.113 207.538 417.561 207.846C416.009 208.155 414.4 207.997 412.939 207.391C411.477 206.786 410.227 205.76 409.348 204.445C408.469 203.129 408 201.582 408 200C408.002 197.879 408.846 195.846 410.346 194.346C411.846 192.846 413.879 192.002 416 192V192Z" fill="black"/>
    <path d="M440 240H392V256H440V240Z" fill="black"/>
    <path d="M448 272H384V288H448V272Z" fill="black"/>
    <path d="M368.345 374.784L312.126 339.647C308.312 337.262 303.904 335.998 299.406 336H292.322C287.52 320.734 278.249 307.259 265.707 297.318C253.166 287.377 237.93 281.428 221.97 280.239C220.233 274.94 217.401 270.065 213.659 265.932C209.916 261.798 205.346 258.497 200.245 256.243L186.825 250.279C190.904 247.308 194.223 243.416 196.512 238.92C198.802 234.423 199.997 229.449 200 224.403V216C199.99 208.569 197.397 201.372 192.667 195.642C187.936 189.911 181.361 186.002 174.066 184.584C172.347 179.22 169.514 174.279 165.754 170.084C161.994 165.89 157.391 162.536 152.245 160.243L138.825 154.279C142.904 151.308 146.223 147.416 148.512 142.92C150.802 138.423 151.997 133.449 152 128.403V120C152 111.513 148.629 103.374 142.627 97.3726C136.626 91.3714 128.487 88 120 88C111.513 88 103.374 91.3714 97.3726 97.3726C91.3714 103.374 88 111.513 88 120V128.403C88.0031 133.449 89.198 138.423 91.4875 142.92C93.7769 147.416 97.0962 151.308 101.175 154.279L87.7549 160.243C82.6095 162.536 78.0061 165.89 74.2458 170.084C70.4855 174.279 67.6531 179.22 65.9336 184.584C58.6391 186.002 52.064 189.911 47.3333 195.642C42.6026 201.372 40.0103 208.569 40 216V224.403C40.0031 229.449 41.198 234.423 43.4875 238.92C45.777 243.416 49.0962 247.308 53.1748 250.279L39.7549 256.243C32.6869 259.389 26.6819 264.516 22.4662 271.003C18.2504 277.49 16.0045 285.059 16 292.796V360H32V292.796C32.0027 288.154 33.3503 283.612 35.8798 279.72C38.4092 275.828 42.0122 272.752 46.2529 270.864L72 259.422L97.7471 270.864C101.988 272.752 105.591 275.828 108.12 279.72C110.65 283.612 111.997 288.154 112 292.796V325.145C107.352 334.746 104.669 345.179 104.106 355.831C103.544 366.484 105.115 377.141 108.726 387.179L99.1445 383.233C92.896 380.687 85.9177 380.588 79.5991 382.955C73.2805 385.322 68.0853 389.982 65.0479 396.007L56.8438 412.428C55.9085 414.299 55.7439 416.463 56.3852 418.455C57.0265 420.447 58.4227 422.108 60.2744 423.082L168.661 480.127C198.481 495.839 233.048 499.998 265.744 491.809L344.979 472H448V456H343.995C343.341 456 342.689 456.08 342.055 456.239L261.863 476.287C232.984 483.519 202.452 479.845 176.112 465.969L74.6572 412.571L79.3604 403.157C80.5798 400.737 82.6661 398.866 85.2036 397.915C87.7411 396.965 90.5436 397.005 93.0527 398.028L195.777 440.327C202.3 443.003 209.412 443.912 216.398 442.961C223.383 442.011 229.995 439.235 235.564 434.913L290.739 392H303.995V376H239.995C233.632 375.993 227.532 373.462 223.033 368.963C218.533 364.463 216.002 358.363 215.995 352H299.406C300.906 352 302.375 352.421 303.646 353.216L359.864 388.353C363.678 390.737 368.086 392.001 372.584 392H448V376H372.584C371.085 376.001 369.616 375.579 368.345 374.784V374.784ZM275.328 336H260.312C255.771 321.623 247.252 308.826 235.74 299.089C243.185 301.501 250.119 305.267 256.195 310.198C264.649 317.045 271.231 325.922 275.328 336V336ZM193.747 270.864C198.098 272.791 201.776 275.972 204.31 280H183.995C163.041 279.99 142.926 288.229 128 302.936V292.796C128.003 288.154 129.35 283.612 131.88 279.72C134.409 275.828 138.012 272.752 142.253 270.864L168 259.422L193.747 270.864ZM184 216V224.403C183.998 227.498 183.1 230.526 181.414 233.121C179.727 235.715 177.325 237.766 174.498 239.024L168 241.912L161.502 239.024C158.675 237.766 156.273 235.715 154.586 233.121C152.9 230.526 152.002 227.498 152 224.403V216C152 211.757 153.686 207.687 156.686 204.686C159.687 201.686 163.757 200 168 200C172.243 200 176.313 201.686 179.314 204.686C182.314 207.687 184 211.757 184 216V216ZM104 120C104 115.757 105.686 111.687 108.686 108.686C111.687 105.686 115.757 104 120 104C124.243 104 128.313 105.686 131.314 108.686C134.314 111.687 136 115.757 136 120V128.403C135.998 131.498 135.1 134.526 133.414 137.121C131.727 139.715 129.325 141.766 126.498 143.024L120 145.912L113.502 143.024C110.675 141.766 108.273 139.715 106.586 137.121C104.9 134.526 104.002 131.498 104 128.403V120ZM88 224.403C87.9983 227.498 87.0999 230.526 85.4136 233.121C83.7273 235.715 81.3253 237.766 78.498 239.024L72 241.912L65.502 239.024C62.6747 237.766 60.2727 235.715 58.5864 233.121C56.9001 230.526 56.0017 227.498 56 224.403V216C56 211.757 57.6857 207.687 60.6863 204.686C63.6869 201.686 67.7565 200 72 200C76.2435 200 80.3131 201.686 83.3137 204.686C86.3143 207.687 88 211.757 88 216V224.403ZM104.245 256.243L90.8252 250.279C94.9038 247.308 98.223 243.416 100.512 238.92C102.802 234.423 103.997 229.449 104 224.403V216C103.992 209.386 101.937 202.936 98.118 197.535C94.2991 192.135 88.9028 188.048 82.6694 185.836C85.1658 180.964 89.2531 177.093 94.2529 174.864L120 163.422L145.747 174.864C150.747 177.093 154.834 180.964 157.331 185.836C151.097 188.048 145.701 192.135 141.882 197.535C138.063 202.936 136.008 209.386 136 216V224.403C136.003 229.449 137.198 234.423 139.488 238.92C141.777 243.416 145.096 247.308 149.175 250.279L135.755 256.243C129.515 259.018 124.09 263.347 120 268.816C115.91 263.347 110.485 259.018 104.245 256.243V256.243ZM239.995 392H264.679L225.741 422.284C222.399 424.877 218.433 426.543 214.241 427.113C210.05 427.683 205.782 427.138 201.869 425.532L131.44 396.532C123.95 385.826 119.953 373.066 119.995 360C119.996 345.147 125.163 330.757 134.61 319.296C144.057 307.834 157.196 300.015 171.776 297.178C186.355 294.341 201.467 296.663 214.523 303.746C227.578 310.829 237.764 322.231 243.334 336H207.995C205.873 336 203.839 336.843 202.338 338.343C200.838 339.844 199.995 341.878 199.995 344V352C200.007 362.605 204.225 372.772 211.724 380.271C219.223 387.77 229.39 391.988 239.995 392V392Z" fill="black"/>
    <path d="M431.644 116.97L444.183 107.03C416.739 72.3546 380.259 45.9251 338.759 30.6523L333.241 45.6719C371.978 59.9291 406.029 84.6008 431.644 116.97V116.97Z" fill="black"/>
    <path d="M178.759 45.6719L173.241 30.6523C150.438 39.0334 129.044 50.8376 109.795 65.6592L119.551 78.3408C137.514 64.5084 157.479 53.4924 178.759 45.6719V45.6719Z" fill="black"/>
</svg>
