<?xml version="1.0" encoding="UTF-8"?>
<!DOCTYPE svg PUBLIC "-//W3C//DTDSVG1.1//EN" "http://www.w3.org/Graphics/SVG/1.1/DTD/svg11.dtd">
<!-- Creator: CorelDRAW -->
<svg xmlns="http://www.w3.org/2000/svg" xml:space="preserve" width="1.70666in" height="1.70666in" version="1.1" style="shape-rendering:geometricPrecision; text-rendering:geometricPrecision; image-rendering:optimizeQuality; fill-rule:evenodd; clip-rule:evenodd" viewBox="0 0 1706.66 1706.66" xmlns:xlink="http://www.w3.org/1999/xlink" xmlns:xodm="http://www.corel.com/coreldraw/odm/2003">
    <defs>
        <style type="text/css">
            <![CDATA[
            .fil0 {
                fill: black
            }
        ]]>
        </style>
    </defs>
    <g id="Layer_x0020_1">
        <metadata id="CorelCorpID_0Corel-Layer"/>
        <path class="fil0" d="M1168.97 1603.19l-143.44 0c-8.32,0 -15.76,-5.15 -18.7,-12.93l-67.19 -177.5 -312.12 0 -45.7 170.57c-2.35,8.74 -10.26,14.82 -19.31,14.82l-150.67 0c-9.42,0 -17.57,-6.58 -19.55,-15.79 -20.54,-95.19 -64.65,-257.11 -95.61,-286.41 -343.81,-312.39 -11.73,-803.39 363.67,-834.54 26.25,-2.18 29.56,37.67 3.33,39.86 -197.07,16.53 -386.33,169.5 -450.02,363.76 -29.08,88.73 -53.48,258.85 109.93,401.33 45.07,42.65 90.76,231.92 104.31,291.79l119.26 0 45.7 -170.57c2.35,-8.73 10.26,-14.81 19.32,-14.81l341.29 0c8.32,0 15.76,5.15 18.71,12.93l67.2 177.5 113 0c81.61,-420.27 348.28,-420.02 399.25,-416.11 111.37,-76.69 117.44,-166.7 114.66,-202.85 -169,4.79 -235.09,-87.27 -237.82,-99.67 -16.51,-75.22 -125.11,-201.66 -126.2,-202.92 -82.96,-87.86 -240.87,-121.76 -358.65,-134.6 -26.29,-2.87 -21.65,-42.65 4.35,-39.76 181.02,19.75 310.22,69.4 383.98,147.58 5.25,6.06 113.5,132.06 134.66,217.17 10.26,13.83 68.23,81.39 215.49,71.41 9.53,-0.61 18.37,5.7 20.73,15.07 32.8,130.17 -111.24,275.32 -149.35,268.96 -11.67,-1.87 -286.41,-41.17 -364.8,399.25 -1.71,9.51 -10,16.46 -19.71,16.46z"/>
        <path class="fil0" d="M1290.85 623.88c-12.16,0 -21.63,-10.98 -19.8,-23.01l40.43 -266.37 -216.5 190.67c-19.8,17.41 -46.19,-12.64 -26.44,-30.01 28.81,-25.36 254.34,-228.47 266.08,-231.36 13.8,-3.39 26.78,8.34 24.66,22.4l-48.67 320.67c-1.51,9.9 -10.04,17 -19.75,17.01z"/>
        <path class="fil0" d="M217.3 821.9c-16.15,0 -72.53,-58.24 -82.41,-67.94 -28.61,17.53 -63.86,35.59 -107.09,53.98 -24.11,10.24 -39.81,-26.53 -15.65,-36.81 38.19,-16.24 69.11,-31.81 94.13,-46.49 -253.46,-272.24 123.39,-277.18 142.61,-124.52 4.21,33.46 -9.82,79.27 -80,131.06 17.57,16.98 37.9,35.46 61.4,55.5 14.15,12.07 5.46,35.22 -12.98,35.22zm-112.3 -283.23c-70.14,0 -59.8,63.16 35.56,163.93 143.19,-101.93 27.94,-163.93 -35.56,-163.93z"/>
        <path class="fil0" d="M1006.91 663.8l-399.8 0c-26.33,0 -26.33,-40 0,-40l399.8 0c26.32,0 26.33,40 0,40z"/>
        <path class="fil0" d="M1231.21 938.48c-117.48,0 -117.48,-178.49 0,-178.49 117.46,0 117.46,178.49 0,178.49zm0 -138.5c-64.8,0 -64.83,98.48 0,98.48 64.8,0 64.8,-98.48 0,-98.48z"/>
        <path class="fil0" d="M807.02 560.12c-125.89,0 -228.32,-102.43 -228.32,-228.32 0,-125.9 102.43,-228.32 228.32,-228.32 125.89,0 228.32,102.43 228.32,228.32 0,125.9 -102.43,228.32 -228.32,228.32zm0 -416.64c-103.84,0 -188.33,84.48 -188.33,188.32 0,103.84 84.48,188.33 188.33,188.33 103.84,0 188.33,-84.48 188.33,-188.33 0,-103.84 -84.5,-188.32 -188.33,-188.32z"/>
        <path class="fil0" d="M807.02 440.33c-62.71,0 -83.76,-84.26 -44.26,-84.26 31.5,0 8.57,44.28 44.28,44.28 13.39,0 24.28,-10.89 24.28,-24.28 0,-43.81 -88.54,-5.45 -88.54,-88.54 0,-84.59 128.54,-84.55 128.54,0 0,26.32 -40,26.33 -40,0 0,-31.94 -48.55,-31.96 -48.55,0 0,43.81 88.54,5.45 88.54,88.54 0,35.43 -28.83,64.26 -64.28,64.26z"/>
        <path class="fil0" d="M807.02 263.26c-24.54,0 -20,-28.55 -20,-46.3 0,-26.33 40,-26.33 40,0 0,17.75 4.54,46.3 -20,46.3z"/>
        <path class="fil0" d="M807.02 466.63c-24.54,0 -20,-28.55 -20,-46.3 0,-26.33 40,-26.33 40,0 0,17.76 4.54,46.3 -20,46.3z"/>
    </g>
</svg>
